<?xml version="1.0" encoding="utf-8"?>
<!-- Generator: Adobe Illustrator 21.0.0, SVG Export Plug-In . SVG Version: 6.00 Build 0)  -->
<svg version="1.1" id="Layer_1" xmlns="http://www.w3.org/2000/svg" xmlns:xlink="http://www.w3.org/1999/xlink" x="0px" y="0px"
	 viewBox="0 0 1726.6 584.5" style="enable-background:new 0 0 1726.6 584.5;" xml:space="preserve">
<style type="text/css">
	.st0{fill:#00A0E4;}
	.st1{fill:#015FA9;}
</style>
<g>
	<path class="st0" d="M1436.7,217c1.1-10.4,2.5-20.1,3.1-29.8c1-14.9-0.8-29.5-4.3-44c-4-16.3-11.6-30.7-23-42.9
		c-14-14.9-31.3-23.9-51.7-27c-17.7-2.7-35-1.4-52,3.8c-21.7,6.6-39.7,18.9-54.6,36c-24.7,28.5-40.5,61.4-49.1,98
		c-2.8,12-4.3,24.1-5.1,36.4c-0.6,9.4-0.8,18.6,0.1,27.9c2.1,21.7,9.6,41,23.5,57.9c16.1,19.6,37.3,27.4,61.9,28.2
		c22.6,0.7,42.3-7.7,60.9-19.4c14-8.7,26.6-19.3,38.5-30.5c21.4-20.2,41.1-42.1,60.6-64.1c8.9-10.1,18-19.9,27-30
		c14.8-16.5,29.8-32.7,44.2-49.5c18.3-21.3,40.4-36.6,66.9-45.5c10-3.3,20.3-4.6,30.9-5.2c14-0.9,27.7,0.4,41.1,4.6
		c28.8,9,48.5,28.2,60.3,55.5c7.3,16.9,10.6,34.8,11.4,53.1c0.3,7,1.2,14.1,1,21.1c-0.8,33.8-6.9,66.5-22.9,96.8
		c-13.1,24.7-29.8,46.3-52.4,63.1c-18.1,13.5-38.1,22-60.6,24.8c-17,2.1-33.6,1.3-50.1-3c-15.9-4.2-30-11.9-41.8-23.5
		c-2.9-2.8-5.7-5.7-9.5-9.4c-10.8,51.7-21.4,102.3-32,153c-27.9,0-55,0-82.6,0c1.9-9.1,3.7-18,5.5-26.9c5.3-25.8,10.7-51.7,16-77.5
		c0.9-4.3,2.5-8,5.6-11.3c17.5-18.9,34.7-38.1,51.9-57.2c16.6-18.4,33.2-36.9,50.4-56c0.8,1.9,1.5,3.4,2.1,5
		c5.1,13.7,12.2,25.9,24.1,34.9c17.3,13.1,36,14.2,55.5,5.8c17.1-7.3,28.9-20.4,37.4-36.6c11.4-21.6,18.4-44.6,21.7-68.7
		c2.1-15.2,1.8-30.4-2.3-45.4c-2.8-10.2-14.4-19.6-25-20.4c-12.6-1-23.7,3.2-34.4,9.3c-13.1,7.6-24.7,17.2-35.7,27.4
		c-19,17.8-35.6,37.8-51.4,58.4c-16.8,21.9-33.5,43.8-51,65.1c-12.7,15.5-26,30.5-41.4,43.6c-9.7,8.2-20.3,14.6-32.2,19
		c-20.4,7.5-41.3,13-63,14.1c-11.6,0.6-23.2,1.5-34.8,1c-39.3-1.7-74.9-13.4-105.2-39.8c-23.9-20.8-38.9-46.6-47.5-76.7
		c-6-20.9-9.1-42.3-8.2-64.1c1-21.6,4-43,9.3-64c5.7-22.8,13.1-45.1,23.6-66.1c13.1-26.1,29.6-49.8,51.4-69.4
		c29-26.2,62.4-43.9,100.9-51.7c11.8-2.4,23.8-3.4,35.8-4.5c13.1-1.3,26-0.5,38.9,0.8c34.1,3.4,65,14.9,91.6,37.2
		c26.2,22,43,49.7,52.2,82.4c0.8,3,0.4,5.1-1.7,7.4c-13.5,14.8-27,29.7-40.4,44.6c-11.6,12.9-23.1,25.8-34.7,38.6
		C1440.3,213.7,1438.7,215.1,1436.7,217z"/>
	<path class="st1" d="M121.4,3.1c3.2,0,5.6,0,8.1,0c52.7,0,105.4-0.2,158,0.1C307.1,3.3,326.6,4,346,8.1
		c41.7,8.8,69.8,38.1,75.9,80.3c4.7,32.3-0.8,63-14.5,92.5c-10.2,21.9-24.4,40.5-44.1,54.8c-16.6,12-35.3,18.6-55.1,22.8
		c-17.2,3.6-34.6,5.7-52.2,5.8c-31,0.2-62,0.7-93,1c-2.7,0-5.4,0-9,0c-11.7,53.7-22.7,107.3-34.3,161.1c-28.8,0-57.2,0-85.4,0
		c-0.4-0.3-0.6-0.4-0.7-0.5c-0.1-0.2-0.1-0.4-0.2-0.7c0-0.7-0.1-1.4,0-2C62.7,283.4,92,143.8,121.4,3.1z M167.8,195.5
		c3.9,0,6.4,0,8.8,0c18.5-0.4,36.9-0.3,55.4-1.2c13.4-0.7,26.8-2,40.1-4c33-4.9,60.7-30.2,64.5-67.2c2.7-26.3-10.9-45.5-36.8-48
		c-12-1.2-24.1-2.1-36.1-2.3c-21-0.4-42-0.1-63-0.1c-2.2,0-4.5,0.2-7.1,0.3C185.1,113.5,176.6,153.7,167.8,195.5z"/>
	<path class="st1" d="M463.3,199.8c4.2-13.4,10.1-24.8,17.9-35.3c18.7-25,43.8-40,74-46.9c16.8-3.8,33.8-4.7,50.9-4.6
		c16.5,0.1,32.8,1.5,48.7,5.9c23.1,6.4,41.9,18.8,54.1,39.9c7.7,13.2,10,27.6,9.1,42.8c-1.6,28.4-9.3,55.6-14.7,83.3
		c-4.6,23.4-9.7,46.8-14.2,70.3c-4.2,22-3.3,44,2.5,65.6c0.4,1.5,0.7,3,1.1,4.6c-4.9,1.5-69.1,1.9-79.4,0.6
		c-4-10.3-4.6-21.5-6.6-33.8c-2.5,2.5-4.2,4.1-5.9,5.8c-17.1,17-37.4,28.3-61,33.3c-23,4.8-45.5,3.6-66.4-8.2
		c-23.5-13.2-37.6-33.3-42.1-59.9c-2.8-16.4-2.3-32.7,2.2-48.8c8-29.2,26.9-48.5,55.2-58.8c15.5-5.6,31.5-9.1,47.8-10.9
		c21.3-2.3,42.6-4.3,63.8-6.9c9.5-1.2,18.8-3.6,28.2-5.3c3.5-0.7,5.5-2.5,6.3-6.1c2-8,3.8-15.9,3.6-24.2
		c-0.2-10.5-5.1-18.5-13.9-23.6c-5-2.9-10.9-5-16.6-5.9c-10.8-1.6-21.8-1.4-32.6,1.6c-14.1,4-24,12.6-29.7,26.1
		c-0.8,1.9-1.6,3.7-2.7,6.2C516.7,204.4,490.3,202.2,463.3,199.8z M622.2,284.2c-7.1,1.1-12.9,2.2-18.7,3c-17.8,2.5-35.6,4.9-53,9.6
		c-9.9,2.7-19.7,5.8-28.2,11.8c-13.9,9.8-16.6,22.7-13.8,36.6c2.8,14,12.6,22.2,26.4,25.6c7.7,1.9,15.3,1.6,23,0
		c25.1-5.1,44.2-18,53-42.9c3.9-11.1,6.5-22.7,9.6-34.1C621.2,291.1,621.5,288.2,622.2,284.2z"/>
	<polygon class="st1" points="13.8,518.2 0,584.5 734.9,551.3 770.7,485.1 	"/>
	<g>
		<path class="st1" d="M1091.5,120.3c-24.6,0-49.3,0.1-73.9-0.1c-4.8,0-7.2,1.6-9.5,5.7c-20.5,38.4-41.2,76.7-61.9,115
			c-19.3,35.5-37.4,71.5-50.9,109.7c-0.3,0.9-1.1,1.7-2.1,3.2c-2.6-39.7-8.3-78.2-13.5-116.8c-5.2-38.7-10.6-77.5-15.9-116.2
			c-27.7,0-54.5,0-81.5,0c-0.1,1.3-0.3,2.2-0.2,3c4.7,27.1,9.5,54.3,14.2,81.4c4.3,24.9,8.7,49.8,13,74.7
			c4.8,27.6,9.6,55.2,14.4,82.8c3.5,20.2,10.4,60.6,10.4,60.6l-71.6,128c51.9,0,84.2,0,84.2,0S966,356.2,995.9,303
			c33.3-59.2,66.6-118.4,99.9-177.6c0.8-1.3,1.3-2.8,2.2-4.8C1095.5,120.5,1093.5,120.3,1091.5,120.3z"/>
	</g>
</g>
</svg>
